<?xml version="1.0" encoding="utf-8"?>
<!-- Generator: Adobe Illustrator 24.2.3, SVG Export Plug-In . SVG Version: 6.00 Build 0)  -->
<svg version="1.1" id="Camada_1" xmlns="http://www.w3.org/2000/svg" xmlns:xlink="http://www.w3.org/1999/xlink" x="0px" y="0px"
	 viewBox="0 0 1000 1000" style="enable-background:new 0 0 1000 1000;" xml:space="preserve">
<style type="text/css">
	.st0{fill:#010101;stroke:#010101;stroke-width:0.5;stroke-miterlimit:10;}
	.st1{fill:#0087C0;}
</style>
<g>
	<g>
		<g>
			<g>
				<path class="st0" d="M308.4,356.6v18.28h-33.23V628.8h33.23v17.62h-55.17V356.6H308.4z"/>
				<path class="st0" d="M310.66,648.68h-59.69V354.34h59.69v22.81h-33.23v249.38h33.23V648.68z M255.49,644.15h50.64v-13.09H272.9
					V372.62h33.23v-13.76h-50.64V644.15z"/>
			</g>
		</g>
		<g>
			<g>
				<path class="st0" d="M718.36,592.23l-15.83,9.14l16.62,28.78L499.25,757.1l-16.62-28.78l-15.26,8.81l27.58,47.78l250.98-144.9
					L718.36,592.23z"/>
				<path class="st0" d="M464.29,736.3l29.85,51.7l254.9-147.17l-29.85-51.7l-19.75,11.4l16.62,28.78L500.08,754.01l-16.62-28.78
					L464.29,736.3z M495.79,781.82l-25.32-43.86l11.34-6.55l16.62,28.78l223.81-129.22l-16.62-28.78l11.91-6.88l25.32,43.86
					L495.79,781.82z"/>
			</g>
		</g>
		<g>
			<g>
				<path class="st0" d="M718.36,407.77l-15.83-9.14l16.62-28.78L499.25,242.9l-16.62,28.78l-15.26-8.81l27.58-47.78L745.94,360
					L718.36,407.77z"/>
				<path class="st0" d="M464.29,263.7l29.85-51.7l254.9,147.17l-29.85,51.7l-19.75-11.4l16.62-28.78L500.08,245.99l-16.62,28.78
					L464.29,263.7z M495.79,218.18l-25.32,43.86l11.34,6.55l16.62-28.78l223.81,129.22l-16.62,28.78l11.91,6.88l25.32-43.86
					L495.79,218.18z"/>
			</g>
		</g>
	</g>
</g>
<g>
	<path class="st1" d="M501.24,680.43l-154.7-89.31V412.48l154.7-89.31l154.7,89.31v178.63L501.24,680.43z M375.34,574.48
		l125.9,72.69l125.9-72.69V429.12l-125.9-72.69l-125.9,72.69V574.48z"/>
</g>
</svg>
